<svg width="15" height="15" viewBox="0 0 15 15" fill="none" xmlns="http://www.w3.org/2000/svg">
<path d="M7.76787 15C5.70772 15 3.73195 14.1816 2.2752 12.7249C0.818453 11.2681 6.10352e-05 9.29234 6.10352e-05 7.23219C6.10352e-05 4.08488 1.80809 1.26302 4.60751 0.0446143C4.70617 0.0016151 4.8155 -0.0106702 4.92124 0.00935931C5.02699 0.0293889 5.12425 0.0808045 5.20035 0.156907C5.27645 0.233009 5.32787 0.330268 5.3479 0.436013C5.36793 0.541757 5.35564 0.651083 5.31264 0.749744C4.99122 1.48769 4.82146 2.43288 4.82146 3.48221C4.82146 7.1746 7.82546 10.1786 11.5179 10.1786C12.5672 10.1786 13.5124 10.0088 14.2503 9.68742C14.349 9.64442 14.4583 9.63213 14.564 9.65216C14.6698 9.67219 14.7671 9.72361 14.8432 9.79971C14.9193 9.87581 14.9707 9.97307 14.9907 10.0788C15.0107 10.1846 14.9984 10.2939 14.9554 10.3925C13.737 13.192 10.9152 15 7.76787 15Z" fill="#373737"/>
</svg>
