<svg width="18" height="22" viewBox="0 0 18 22" fill="none" xmlns="http://www.w3.org/2000/svg">
<path fill-rule="evenodd" clip-rule="evenodd" d="M8.46961 1.18842C8.76251 0.895527 9.23738 0.895527 9.53027 1.18842L13.2803 4.93842C13.5732 5.23131 13.5732 5.70619 13.2803 5.99908L9.53027 9.74908C9.23738 10.042 8.76251 10.042 8.46961 9.74908C8.17672 9.45619 8.17672 8.98131 8.46961 8.68842L11.052 6.10599C10.6146 6.06209 9.96104 6.03125 8.99994 6.03125C7.66492 6.03125 6.35988 6.42713 5.24984 7.16883C4.13981 7.91053 3.27465 8.96474 2.76376 10.1981C2.25286 11.4315 2.11919 12.7887 2.37964 14.0981C2.64009 15.4075 3.28297 16.6102 4.22697 17.5542C5.17098 18.4982 6.37371 19.1411 7.68308 19.4016C8.99246 19.662 10.3497 19.5283 11.5831 19.0174C12.8165 18.5065 13.8707 17.6414 14.6124 16.5313C15.3541 15.4213 15.7499 14.1163 15.7499 12.7812C15.7499 12.367 16.0857 12.0312 16.4999 12.0312C16.9142 12.0312 17.2499 12.367 17.2499 12.7812C17.2499 14.4129 16.7661 16.008 15.8596 17.3647C14.953 18.7214 13.6646 19.7788 12.1571 20.4033C10.6496 21.0277 8.99079 21.1911 7.39045 20.8727C5.7901 20.5544 4.3201 19.7687 3.16631 18.6149C2.01253 17.4611 1.22679 15.9911 0.908464 14.3907C0.590136 12.7904 0.753514 11.1316 1.37794 9.62411C2.00236 8.11662 3.05978 6.82815 4.41649 5.92163C5.77319 5.0151 7.36825 4.53125 8.99994 4.53125C9.7485 4.53125 10.3378 4.5493 10.8009 4.58039L8.46961 2.24908C8.17672 1.95619 8.17672 1.48131 8.46961 1.18842Z" fill="#373737"/>
</svg>
