<svg width="23" height="23" viewBox="0 0 23 23" fill="none" xmlns="http://www.w3.org/2000/svg">
<path d="M11.5001 4.87511C11.2266 4.87511 10.9643 4.76647 10.7709 4.57307C10.5775 4.37967 10.4688 4.11737 10.4688 3.84386V1.59386C10.4688 1.32036 10.5775 1.05806 10.7709 0.864661C10.9643 0.671264 11.2266 0.562614 11.5001 0.562614C11.7736 0.562614 12.0359 0.671264 12.2293 0.864661C12.4227 1.05806 12.5313 1.32036 12.5313 1.59386V3.84386C12.5313 4.11737 12.4227 4.37967 12.2293 4.57307C12.0359 4.76647 11.7736 4.87511 11.5001 4.87511Z" fill="#373737"/>
<path d="M16.8035 7.07168C16.5996 7.07165 16.4003 7.01117 16.2307 6.89789C16.0612 6.7846 15.929 6.62359 15.8509 6.43521C15.7729 6.24682 15.7524 6.03953 15.7921 5.83952C15.8319 5.63951 15.93 5.45577 16.0741 5.31152L17.6651 3.72058C17.8593 3.53139 18.1202 3.42631 18.3914 3.4281C18.6625 3.42989 18.9221 3.53839 19.1138 3.73012C19.3055 3.92186 19.414 4.18139 19.4158 4.45254C19.4176 4.72368 19.3125 4.98462 19.1233 5.17886L17.5324 6.7698C17.4368 6.86564 17.3232 6.94165 17.1981 6.99345C17.073 7.04525 16.9389 7.07184 16.8035 7.07168Z" fill="#373737"/>
<path d="M21.2501 12.3751H19.0001C18.7266 12.3751 18.4643 12.2665 18.2709 12.0731C18.0775 11.8797 17.9688 11.6174 17.9688 11.3439C17.9688 11.0704 18.0775 10.8081 18.2709 10.6147C18.4643 10.4213 18.7266 10.3126 19.0001 10.3126H21.2501C21.5236 10.3126 21.7859 10.4213 21.9793 10.6147C22.1727 10.8081 22.2813 11.0704 22.2813 11.3439C22.2813 11.6174 22.1727 11.8797 21.9793 12.0731C21.7859 12.2665 21.5236 12.3751 21.2501 12.3751Z" fill="#373737"/>
<path d="M4.00006 12.3751H1.75006C1.47656 12.3751 1.21425 12.2665 1.02086 12.0731C0.82746 11.8797 0.718811 11.6174 0.718811 11.3439C0.718811 11.0704 0.82746 10.8081 1.02086 10.6147C1.21425 10.4213 1.47656 10.3126 1.75006 10.3126H4.00006C4.27357 10.3126 4.53587 10.4213 4.72927 10.6147C4.92266 10.8081 5.03131 11.0704 5.03131 11.3439C5.03131 11.6174 4.92266 11.8797 4.72927 12.0731C4.53587 12.2665 4.27357 12.3751 4.00006 12.3751Z" fill="#373737"/>
<path d="M6.19662 7.07168C6.06122 7.07194 5.9271 7.0454 5.802 6.99359C5.6769 6.94178 5.56329 6.86573 5.46772 6.7698L3.87678 5.17886C3.68759 4.98462 3.58251 4.72368 3.5843 4.45254C3.58608 4.18139 3.69459 3.92186 3.88632 3.73012C4.07805 3.53839 4.33759 3.42989 4.60873 3.4281C4.87988 3.42631 5.14082 3.53139 5.33506 3.72058L6.926 5.31152C7.07013 5.45577 7.16826 5.63951 7.20799 5.83952C7.24771 6.03953 7.22725 6.24682 7.14919 6.43521C7.07113 6.62359 6.93897 6.7846 6.76942 6.89789C6.59987 7.01117 6.40054 7.07165 6.19662 7.07168Z" fill="#373737"/>
<path d="M11.5001 16.1251C10.5544 16.1251 9.63001 15.8447 8.84374 15.3193C8.05747 14.794 7.44464 14.0472 7.08276 13.1736C6.72088 12.2999 6.6262 11.3386 6.81068 10.4111C6.99517 9.48362 7.45054 8.63168 8.11921 7.96301C8.78788 7.29434 9.63981 6.83897 10.5673 6.65448C11.4948 6.47 12.4561 6.56468 13.3298 6.92657C14.2034 7.28845 14.9502 7.90127 15.4755 8.68754C16.0009 9.47382 16.2813 10.3982 16.2813 11.3439C16.2798 12.6115 15.7756 13.8267 14.8793 14.7231C13.9829 15.6194 12.7677 16.1236 11.5001 16.1251Z" fill="#373737"/>
<path d="M20.2813 19.3647H3.03131C2.75781 19.3647 2.49551 19.256 2.30211 19.0626C2.10871 18.8692 2.00006 18.6069 2.00006 18.3334C2.00006 18.0599 2.10871 17.7976 2.30211 17.6042C2.49551 17.4108 2.75781 17.3022 3.03131 17.3022H20.2813C20.5548 17.3022 20.8171 17.4108 21.0105 17.6042C21.2039 17.7976 21.3126 18.0599 21.3126 18.3334C21.3126 18.6069 21.2039 18.8692 21.0105 19.0626C20.8171 19.256 20.5548 19.3647 20.2813 19.3647Z" fill="#373737"/>
<path d="M17.2396 22.2688H5.98961C5.7161 22.2688 5.4538 22.1601 5.26041 21.9667C5.06701 21.7733 4.95836 21.511 4.95836 21.2375C4.95836 20.964 5.06701 20.7017 5.26041 20.5083C5.4538 20.3149 5.7161 20.2063 5.98961 20.2063H17.2396C17.5131 20.2063 17.7754 20.3149 17.9688 20.5083C18.1622 20.7017 18.2709 20.964 18.2709 21.2375C18.2709 21.511 18.1622 21.7733 17.9688 21.9667C17.7754 22.1601 17.5131 22.2688 17.2396 22.2688Z" fill="#373737"/>
</svg>
