<svg width="21" height="26" viewBox="0 0 21 26" fill="none" xmlns="http://www.w3.org/2000/svg">
<path d="M10.875 25.069C7.99077 25.069 5.22467 23.9233 3.18521 21.8838C1.14576 19.8443 0 17.0782 0 14.194C0 9.78776 2.53125 5.83714 6.45047 4.13136C6.5886 4.07116 6.74165 4.05396 6.8897 4.082C7.03774 4.11004 7.1739 4.18202 7.28045 4.28857C7.38699 4.39511 7.45897 4.53127 7.48701 4.67932C7.51506 4.82736 7.49786 4.98042 7.43766 5.11854C6.98766 6.15167 6.75 7.47495 6.75 8.94401C6.75 14.1134 10.9556 18.319 16.125 18.319C17.5941 18.319 18.9173 18.0814 19.9505 17.6314C20.0886 17.5712 20.2417 17.554 20.3897 17.582C20.5377 17.61 20.6739 17.682 20.7804 17.7886C20.887 17.8951 20.959 18.0313 20.987 18.1793C21.0151 18.3274 20.9979 18.4804 20.9377 18.6185C19.2319 22.5378 15.2813 25.069 10.875 25.069Z" fill="#373737"/>
<path d="M8.17083 3.92714C8.15658 3.78618 8.2312 3.64918 8.35865 3.58668L9.29074 3.11706L9.56437 2.10985C9.60011 1.97247 9.71941 1.87195 9.86037 1.85771C10.0013 1.84346 10.1383 1.91808 10.2008 2.04553L10.6705 2.97762L11.6777 3.25125C11.815 3.28699 11.9156 3.40629 11.9298 3.54725C11.9441 3.68821 11.8694 3.82521 11.742 3.88771L10.8099 4.35733L10.5363 5.36453C10.4984 5.50213 10.3812 5.60244 10.2403 5.61668C10.0993 5.63093 9.96231 5.55631 9.8998 5.42886L9.43018 4.49677L8.42298 4.22314C8.28559 4.1874 8.18507 4.0681 8.17083 3.92714Z" fill="#373737"/>
<path d="M11.7506 7.73708C11.7364 7.59611 11.811 7.45912 11.9385 7.39661L13.2256 6.74655L13.605 5.3554C13.6428 5.2178 13.76 5.1175 13.901 5.10325C14.0419 5.089 14.1789 5.16362 14.2414 5.29107L14.8915 6.57819L16.2826 6.95757C16.4202 6.99545 16.5205 7.11261 16.5348 7.25357C16.549 7.39453 16.4744 7.53153 16.347 7.59404L15.0598 8.2441L14.6805 9.63525C14.6426 9.77285 14.5254 9.87315 14.3845 9.8874C14.2435 9.90164 14.1065 9.82703 14.044 9.69957L13.3939 8.41246L12.0028 8.03307C11.8654 7.99733 11.7649 7.87804 11.7506 7.73708Z" fill="#373737"/>
<path d="M14.6144 2.33993C14.6001 2.19897 14.6748 2.06197 14.8022 1.99946L15.7343 1.52984L16.0079 0.52264C16.0437 0.385257 16.163 0.284739 16.3039 0.270493C16.4449 0.256247 16.5819 0.330863 16.6444 0.458317L17.114 1.3904L18.1212 1.66403C18.2586 1.69977 18.3591 1.81907 18.3734 1.96003C18.3876 2.10099 18.313 2.23799 18.1855 2.3005L17.2534 2.77012L16.9798 3.77732C16.9419 3.91492 16.8248 4.01522 16.6838 4.02947C16.5429 4.04371 16.4059 3.9691 16.3434 3.84164L15.8737 2.90956L14.8665 2.63593C14.7291 2.60019 14.6286 2.48089 14.6144 2.33993ZM16.4347 1.56478L16.3543 1.85771C16.3292 1.95086 16.2639 2.03082 16.1777 2.07406L15.9067 2.21147L16.1997 2.29191C16.2928 2.31701 16.3728 2.38229 16.416 2.46854L16.5534 2.73946L16.6339 2.44652C16.659 2.35337 16.7243 2.27341 16.8105 2.23017L17.0791 2.09084L16.7861 2.0104C16.693 1.9853 16.613 1.92002 16.5698 1.83377L16.4347 1.56478Z" fill="#373737"/>
</svg>
