<svg width="22" height="22" viewBox="0 0 22 22" fill="none" xmlns="http://www.w3.org/2000/svg">
<path d="M11 4.53125C10.7265 4.53125 10.4642 4.4226 10.2708 4.2292C10.0774 4.03581 9.96875 3.7735 9.96875 3.5V1.25C9.96875 0.976496 10.0774 0.714193 10.2708 0.520796C10.4642 0.327399 10.7265 0.21875 11 0.21875C11.2735 0.21875 11.5358 0.327399 11.7292 0.520796C11.9226 0.714193 12.0312 0.976496 12.0312 1.25V3.5C12.0312 3.7735 11.9226 4.03581 11.7292 4.2292C11.5358 4.4226 11.2735 4.53125 11 4.53125Z" fill="#373737"/>
<path d="M11 21.7812C10.7265 21.7812 10.4642 21.6726 10.2708 21.4792C10.0774 21.2858 9.96875 21.0235 9.96875 20.75V18.5C9.96875 18.2265 10.0774 17.9642 10.2708 17.7708C10.4642 17.5774 10.7265 17.4688 11 17.4688C11.2735 17.4688 11.5358 17.5774 11.7292 17.7708C11.9226 17.9642 12.0312 18.2265 12.0312 18.5V20.75C12.0312 21.0235 11.9226 21.2858 11.7292 21.4792C11.5358 21.6726 11.2735 21.7812 11 21.7812Z" fill="#373737"/>
<path d="M16.3034 6.72781C16.0995 6.72779 15.9002 6.66731 15.7306 6.55402C15.5611 6.44073 15.4289 6.27972 15.3509 6.09134C15.2728 5.90296 15.2523 5.69566 15.2921 5.49565C15.3318 5.29565 15.4299 5.11191 15.5741 4.96766L17.165 3.37672C17.3592 3.18753 17.6202 3.08245 17.8913 3.08424C18.1625 3.08602 18.422 3.19453 18.6137 3.38626C18.8055 3.57799 18.914 3.83753 18.9158 4.10867C18.9176 4.37982 18.8125 4.64076 18.6233 4.835L17.0323 6.42594C16.9367 6.52178 16.8231 6.59778 16.698 6.64959C16.5729 6.70139 16.4388 6.72797 16.3034 6.72781Z" fill="#373737"/>
<path d="M4.10562 18.9256C3.90165 18.9256 3.70227 18.8651 3.53269 18.7517C3.36311 18.6384 3.23095 18.4773 3.15293 18.2888C3.07491 18.1004 3.05452 17.893 3.09436 17.693C3.13419 17.4929 3.23246 17.3092 3.37672 17.165L4.96766 15.5741C5.06294 15.4762 5.17672 15.3983 5.30237 15.3448C5.42802 15.2913 5.56304 15.2633 5.69961 15.2624C5.83617 15.2615 5.97156 15.2877 6.0979 15.3396C6.22425 15.3914 6.33904 15.4678 6.4356 15.5644C6.53217 15.661 6.6086 15.7758 6.66045 15.9021C6.71229 16.0284 6.73853 16.1638 6.73763 16.3004C6.73673 16.437 6.70871 16.572 6.65521 16.6976C6.6017 16.8233 6.52377 16.9371 6.42594 17.0323L4.835 18.6233C4.73934 18.7192 4.62565 18.7954 4.50048 18.8472C4.37531 18.8991 4.24112 18.9258 4.10562 18.9256Z" fill="#373737"/>
<path d="M20.75 12.0312H18.5C18.2265 12.0312 17.9642 11.9226 17.7708 11.7292C17.5774 11.5358 17.4688 11.2735 17.4688 11C17.4688 10.7265 17.5774 10.4642 17.7708 10.2708C17.9642 10.0774 18.2265 9.96875 18.5 9.96875H20.75C21.0235 9.96875 21.2858 10.0774 21.4792 10.2708C21.6726 10.4642 21.7812 10.7265 21.7812 11C21.7812 11.2735 21.6726 11.5358 21.4792 11.7292C21.2858 11.9226 21.0235 12.0312 20.75 12.0312Z" fill="#373737"/>
<path d="M3.5 12.0312H1.25C0.976496 12.0312 0.714193 11.9226 0.520796 11.7292C0.327399 11.5358 0.21875 11.2735 0.21875 11C0.21875 10.7265 0.327399 10.4642 0.520796 10.2708C0.714193 10.0774 0.976496 9.96875 1.25 9.96875H3.5C3.7735 9.96875 4.03581 10.0774 4.2292 10.2708C4.4226 10.4642 4.53125 10.7265 4.53125 11C4.53125 11.2735 4.4226 11.5358 4.2292 11.7292C4.03581 11.9226 3.7735 12.0312 3.5 12.0312Z" fill="#373737"/>
<path d="M17.8944 18.9256C17.7589 18.9258 17.6247 18.8991 17.4995 18.8472C17.3743 18.7954 17.2607 18.7192 17.165 18.6233L15.5741 17.0323C15.3849 16.8381 15.2798 16.5772 15.2816 16.306C15.2834 16.0349 15.3919 15.7753 15.5836 15.5836C15.7753 15.3919 16.0349 15.2834 16.306 15.2816C16.5772 15.2798 16.8381 15.3849 17.0323 15.5741L18.6233 17.165C18.7675 17.3092 18.8658 17.4929 18.9056 17.693C18.9455 17.893 18.9251 18.1004 18.8471 18.2888C18.769 18.4773 18.6369 18.6384 18.4673 18.7517C18.2977 18.8651 18.0983 18.9256 17.8944 18.9256Z" fill="#373737"/>
<path d="M5.69656 6.72781C5.56116 6.72808 5.42704 6.70154 5.30194 6.64973C5.17684 6.59792 5.06323 6.52186 4.96766 6.42594L3.37672 4.835C3.18753 4.64076 3.08245 4.37982 3.08424 4.10867C3.08602 3.83753 3.19453 3.57799 3.38626 3.38626C3.57799 3.19453 3.83753 3.08602 4.10867 3.08424C4.37982 3.08245 4.64076 3.18753 4.835 3.37672L6.42594 4.96766C6.57007 5.11191 6.6682 5.29565 6.70793 5.49565C6.74765 5.69566 6.72719 5.90296 6.64913 6.09134C6.57107 6.27972 6.43891 6.44073 6.26936 6.55402C6.09981 6.66731 5.90048 6.72779 5.69656 6.72781Z" fill="#373737"/>
<path d="M11 15.7812C10.0544 15.7812 9.12995 15.5008 8.34368 14.9755C7.55741 14.4501 6.94458 13.7034 6.5827 12.8297C6.22082 11.956 6.12613 10.9947 6.31062 10.0672C6.49511 9.13975 6.95048 8.28782 7.61915 7.61915C8.28782 6.95048 9.13975 6.49511 10.0672 6.31062C10.9947 6.12613 11.956 6.22082 12.8297 6.5827C13.7034 6.94458 14.4501 7.55741 14.9755 8.34368C15.5008 9.12995 15.7812 10.0544 15.7812 11C15.7798 12.2676 15.2755 13.4829 14.3792 14.3792C13.4829 15.2755 12.2676 15.7798 11 15.7812Z" fill="#373737"/>
</svg>
